<svg xmlns:xlink="http://www.w3.org/1999/xlink" version="1.1" id="Layer_1" xmlns="http://www.w3.org/2000/svg" x="0" y="0" viewBox="0 0 483.23 55.73" xml:space="preserve" class=" " width="483.23"  height="55.73" ><style></style><g fill="#FFFFFF"><path d="M57.7 27.56C56.21 14.79 45.43 5.36 32.9 5.24h-.28c-.97 0-1.94.06-2.92.17-3.56.41-6.85 1.55-9.76 3.24-.06.04-.13.08-.19.11s-.11.07-.17.1C5.15 17.46 0 37.31 0 49.39l11.63-6.71c4.1 7.81 11.96 12.95 20.72 13.05h.28c.97 0 1.94-.06 2.92-.17 13.85-1.62 23.77-14.15 22.15-28zM185.59 40.2c1.71 3.39 4.75 5.15 8.78 5.14 3.96-.01 6.08-1.92 6.07-4.19-.01-2.76-4.11-3.38-8.99-4.36-6.44-1.33-13.58-3.28-13.6-11.34-.02-6.43 6.19-12.03 15.59-11.99 7.47-.02 12.16 2.58 15.63 7.01l-8.1 4.71c-1.56-2.54-3.97-4.02-7.51-4.01-3.82.01-5.65 1.57-5.65 3.69.01 2.4 3.12 3.03 8.71 4.22 6.37 1.26 13.87 3.43 13.89 11.62.02 5.94-5.27 12.67-16.37 12.62-8.37.02-13.9-2.86-17.1-8.1l-.01-.02 8.66-5zM150.71 40.2c1.71 3.39 4.75 5.15 8.78 5.14 3.96-.01 6.08-1.92 6.07-4.19-.01-2.76-4.11-3.38-8.99-4.36-6.44-1.33-13.58-3.28-13.6-11.34-.02-6.43 6.19-12.03 15.59-11.99 7.47-.02 12.16 2.58 15.63 7.01l-8.1 4.71c-1.56-2.54-3.97-4.02-7.51-4.01-3.82.01-5.65 1.57-5.65 3.69.01 2.4 3.12 3.03 8.71 4.22 6.37 1.26 13.87 3.43 13.89 11.62.02 5.94-5.27 12.67-16.37 12.62-8.37.02-13.9-2.86-17.1-8.1l-.01-.02 8.66-5zM119.94 13.46c-11.01 0-19.93 8.92-19.93 19.93s8.92 19.93 19.93 19.93 19.93-8.92 19.93-19.93-8.93-19.93-19.93-19.93zm0 30.56c-5.87 0-10.63-4.76-10.63-10.63s4.76-10.63 10.63-10.63 10.63 4.76 10.63 10.63-4.76 10.63-10.63 10.63zM94.85 41.39c-1.23.98-3.79 2.19-5.08 2.19-2.5 0-4.21-1.43-4.21-5.5V22.94h11.86v-8.7H85.55V0l-9.89 5.71v8.53h-7.91v8.7h7.91v16.03c0 10.49 4.89 14.35 12.95 14.35 3.57 0 8.33-2.11 10.82-3.97l-4.58-7.96z" fill="#FFFFFF"></path></g><g fill="#FFFFFF"><path d="M228.2 33.78c0-11.12 8.62-19.53 19.6-19.53 8.2 0 14.87 4.66 17.72 11.4l-5.21 2.29c-2.22-5.14-6.74-8.34-12.58-8.34-7.85 0-13.83 6.32-13.83 14.18 0 7.78 6.11 14.18 14.04 14.18 6.05 0 10.42-3.75 12.51-8.69l5.28 2.22c-2.92 6.95-9.24 11.81-17.86 11.81-11.2.01-19.67-8.68-19.67-19.52zM316.83 15.02h5.49v7.09c1.6-5 5.35-7.64 10.7-7.64 2.57 0 4.79.49 6.25 1.39l-2.36 5.42c-1.04-.69-2.57-1.18-4.59-1.18-6.25 0-9.87 3.61-9.87 11.88v20.57h-5.63V15.02zM339.94 33.92c0-11.05 8.34-19.67 19.6-19.67 10.98 0 19.11 7.99 19.11 19.11v2.57H345.5c.83 7.16 6.32 12.23 14.25 12.23 5.98 0 10.01-2.64 12.58-7.23l4.86 2.85c-3.82 5.98-9.24 9.52-17.44 9.52-12.02.01-19.81-8.4-19.81-19.38zm5.7-2.99h27.17c-.9-7.09-5.98-11.6-13.27-11.6-7.16 0-12.65 4.93-13.9 11.6zM383.32 33.92c0-11.05 8.34-19.67 19.6-19.67 10.98 0 19.11 7.99 19.11 19.11v2.57h-33.15c.83 7.16 6.32 12.23 14.25 12.23 5.98 0 10.01-2.64 12.58-7.23l4.86 2.85c-3.82 5.98-9.24 9.52-17.44 9.52-12.02.01-19.81-8.4-19.81-19.38zm5.7-2.99h27.17c-.9-7.09-5.98-11.6-13.27-11.6-7.16 0-12.65 4.93-13.9 11.6zM428.51 15.02H434v7.09c1.6-5 5.35-7.64 10.7-7.64 2.57 0 4.79.49 6.25 1.39l-2.36 5.42c-1.04-.69-2.57-1.18-4.59-1.18-6.25 0-9.87 3.61-9.87 11.88v20.57h-5.63V15.02zM451.55 45.45l4.93-3.34c2.57 3.68 6.39 6.11 12.09 6.11 5.84 0 8.89-2.78 8.89-6.53 0-4.17-5.14-5-10.63-6.11-6.46-1.25-13.34-2.99-13.34-10.49 0-5.84 5.07-10.98 13.97-10.91 6.95 0 11.67 2.57 15.01 6.67l-4.73 3.2c-2.22-2.99-5.49-5-10.28-5-5.77 0-8.13 2.5-8.13 5.98 0 3.89 4.52 4.66 10.35 5.84 6.46 1.25 13.55 3.06 13.55 10.77 0 5.91-5 11.74-14.8 11.67-8.2 0-13.55-3.06-16.88-7.86zM302.8 21.55c-2.99-4.59-8.62-7.3-14.04-7.3-10.49 0-19.11 8.06-19.11 19.53s8.48 19.53 19.11 19.53c5.42 0 11.05-2.78 14.04-7.44v6.67h5.63V15.02h-5.63v6.53zm-13.55 26.41c-7.85 0-13.83-6.05-13.83-14.25 0-7.99 5.98-14.24 13.83-14.24 7.99 0 13.97 6.46 13.97 14.24-.01 7.92-5.98 14.25-13.97 14.25z" fill="#FFFFFF"></path></g></svg>